<svg width="17" height="24" viewBox="0 0 17 24" fill="none" xmlns="http://www.w3.org/2000/svg">
<path d="M8.5 0C13.1944 0 17 3.80558 17 8.5V15.5L16.9893 15.9375C16.7616 20.4286 13.0477 24 8.5 24C3.80558 24 0 20.1944 0 15.5V8.5C2.57711e-07 3.80558 3.80558 0 8.5 0ZM8.5 1C4.35786 1 1 4.35786 1 8.5V15.5C1 19.6421 4.35786 23 8.5 23C12.6421 23 16 19.6421 16 15.5V8.5C16 4.35786 12.6421 1 8.5 1ZM8.5 15.793L10.8281 13.4648C11.0234 13.2696 11.3399 13.2696 11.5352 13.4648C11.7304 13.6601 11.7304 13.9766 11.5352 14.1719L8.35352 17.3535C8.15825 17.5488 7.84175 17.5488 7.64648 17.3535L4.46484 14.1719C4.26958 13.9766 4.26958 13.6601 4.46484 13.4648C4.66011 13.2696 4.97661 13.2696 5.17188 13.4648L7.5 15.793V5H8.5V15.793Z" fill="black"/>
</svg>
