<svg width="368" height="54" viewBox="0 0 368 54" fill="none" xmlns="http://www.w3.org/2000/svg">
<path d="M20.784 11.632C20.784 11.8027 20.72 11.9307 20.592 12.016C20.464 12.1013 20.336 12.1867 20.208 12.272C20.0373 12.3573 19.8453 12.4213 19.632 12.464C19.2907 12.464 18.992 12.4427 18.736 12.4C18.48 12.3573 18.1813 12.336 17.84 12.336C17.3707 12.336 16.432 12.6133 15.024 13.168C13.6587 13.68 12.2293 14.3413 10.736 15.152C9.24267 15.9627 7.89867 16.816 6.704 17.712C5.552 18.608 4.95467 19.3973 4.912 20.08L5.68 24.432C5.89333 25.5413 6.064 26.544 6.192 27.44C6.36267 28.336 6.46933 28.784 6.512 28.784C6.59733 28.7413 6.87467 28.5707 7.344 28.272C7.856 27.9307 8.47467 27.568 9.2 27.184C9.92533 26.7573 10.7147 26.3093 11.568 25.84C12.464 25.3707 13.3173 24.944 14.128 24.56C14.9387 24.176 15.6853 23.856 16.368 23.6C17.0507 23.344 17.584 23.216 17.968 23.216C18.2667 23.216 18.5227 23.28 18.736 23.408C18.992 23.536 19.12 23.7707 19.12 24.112C19.12 24.368 18.8213 24.7307 18.224 25.2C17.6267 25.6693 16.88 26.1813 15.984 26.736C15.088 27.2907 14.1067 27.888 13.04 28.528C12.016 29.1253 11.056 29.7013 10.16 30.256C9.264 30.768 8.51733 31.2587 7.92 31.728C7.32267 32.1547 7.024 32.4747 7.024 32.688C7.024 32.9013 7.088 33.584 7.216 34.736C7.38667 35.8453 7.6 37.0827 7.856 38.448C8.15467 39.8133 8.47467 41.136 8.816 42.416C9.2 43.696 9.60533 44.592 10.032 45.104C10.1173 45.1893 10.16 45.3173 10.16 45.488C10.16 45.744 9.98933 46.0213 9.648 46.32C9.30667 46.6613 9.008 46.832 8.752 46.832C8.41067 46.832 8.048 46.512 7.664 45.872C7.32267 45.232 7.00267 44.4213 6.704 43.44C6.40533 42.4587 6.10667 41.4133 5.808 40.304C5.552 39.1947 5.31733 38.1493 5.104 37.168C4.93333 36.1867 4.784 35.376 4.656 34.736C4.528 34.096 4.44267 33.776 4.4 33.776C4.272 33.776 3.97333 33.8613 3.504 34.032C3.03467 34.16 2.544 34.224 2.032 34.224C1.648 34.224 1.30667 34.0747 1.008 33.776C0.752 33.4347 0.624 33.0933 0.624 32.752C0.624 32.4107 0.730667 32.112 0.944 31.856C1.15733 31.6 1.41333 31.3653 1.712 31.152C2.01067 30.9387 2.33067 30.7467 2.672 30.576C3.01333 30.4053 3.312 30.2347 3.568 30.064L1.776 17.84C1.776 17.4987 1.84 17.1573 1.968 16.816C2.096 16.432 2.37333 16.24 2.8 16.24C2.88533 16.24 3.01333 16.3467 3.184 16.56C3.35467 16.7307 3.48267 16.816 3.568 16.816C3.696 16.7307 4.25067 16.304 5.232 15.536C6.21333 14.7253 7.408 13.872 8.816 12.976C10.2667 12.0373 11.8027 11.2053 13.424 10.48C15.088 9.712 16.624 9.328 18.032 9.328C18.5867 9.328 19.184 9.56267 19.824 10.032C20.464 10.5013 20.784 11.0347 20.784 11.632ZM25.836 16.56C25.836 16.6453 25.6867 16.816 25.388 17.072C25.0893 17.328 24.7267 17.6053 24.3 17.904C23.916 18.16 23.5107 18.3947 23.084 18.608C22.6573 18.8213 22.316 18.928 22.06 18.928C21.8893 18.928 21.6547 18.928 21.356 18.928C21.1 18.8853 20.8227 18.8 20.524 18.672C20.268 18.544 20.0333 18.3733 19.82 18.16C19.6067 17.904 19.5 17.584 19.5 17.2C19.5 16.6027 19.7133 16.048 20.14 15.536C20.5667 14.9813 21.1213 14.704 21.804 14.704C21.932 14.704 22.2093 14.768 22.636 14.896C23.1053 14.9813 23.5747 15.1093 24.044 15.28C24.5133 15.4507 24.9187 15.6427 25.26 15.856C25.644 16.0693 25.836 16.304 25.836 16.56ZM27.948 40.496C27.948 40.7947 27.7133 41.0507 27.244 41.264C26.8173 41.4773 26.4973 41.584 26.284 41.584C25.8573 41.584 25.4733 41.3067 25.132 40.752C24.7907 40.1973 24.492 39.5573 24.236 38.832C23.98 38.1067 23.7667 37.424 23.596 36.784C23.4253 36.1013 23.2973 35.632 23.212 35.376C23.084 34.9493 22.9133 34.4373 22.7 33.84C22.4867 33.2427 22.2733 32.6667 22.06 32.112C21.8893 31.5573 21.74 31.0667 21.612 30.64C21.484 30.2133 21.42 29.9787 21.42 29.936C21.42 29.3387 21.5267 28.784 21.74 28.272C21.996 27.76 22.2947 27.504 22.636 27.504C23.02 27.504 23.4253 27.8027 23.852 28.4C24.2787 28.9973 24.684 29.7653 25.068 30.704C25.4947 31.6 25.8787 32.6027 26.22 33.712C26.5613 34.7787 26.86 35.8027 27.116 36.784C27.372 37.7227 27.564 38.5547 27.692 39.28C27.8627 39.9627 27.948 40.368 27.948 40.496ZM50.1095 35.696C50.1095 35.9093 50.0028 36.1227 49.7895 36.336C49.6188 36.5067 49.5122 36.6987 49.4695 36.912C49.4695 37.3813 49.5548 37.8293 49.7255 38.256C49.9388 38.6827 50.0455 39.1947 50.0455 39.792C50.0455 40.3467 49.8748 40.624 49.5335 40.624C49.1068 40.624 48.7868 40.688 48.5735 40.816C48.4028 40.9013 48.0828 40.9867 47.6135 41.072C47.3575 41.072 47.0802 40.8373 46.7815 40.368C46.6108 40.1547 46.4615 39.8987 46.3335 39.6C46.3335 39.5573 46.2055 39.6427 45.9495 39.856C45.7362 40.0693 45.3522 40.3253 44.7975 40.624C44.2855 40.88 43.5602 41.136 42.6215 41.392C41.7255 41.6053 40.5735 41.712 39.1655 41.712C37.9708 41.712 36.9255 41.456 36.0295 40.944C35.1335 40.3893 34.3868 39.6853 33.7895 38.832C33.2348 37.9787 32.8082 37.0187 32.5095 35.952C32.2535 34.8427 32.1255 33.7333 32.1255 32.624C32.1255 31.6 32.2322 30.64 32.4455 29.744C32.7015 28.8053 33.0428 27.9947 33.4695 27.312C33.8962 26.5867 34.4295 26.0107 35.0695 25.584C35.7095 25.1573 36.4562 24.944 37.3095 24.944C38.1202 24.944 38.9308 25.2 39.7415 25.712C40.5522 26.224 41.2775 26.7787 41.9175 27.376C42.5575 27.9733 43.0695 28.528 43.4535 29.04C43.8802 29.5093 44.0935 29.744 44.0935 29.744C43.4962 26.416 42.9628 23.408 42.4935 20.72C42.2802 19.568 42.0668 18.4373 41.8535 17.328C41.6828 16.176 41.5122 15.152 41.3415 14.256C41.1708 13.36 41.0215 12.6133 40.8935 12.016C40.8082 11.376 40.7655 10.992 40.7655 10.864C40.7228 10.608 40.6802 10.16 40.6375 9.52C40.5948 8.83733 40.5522 8.13333 40.5095 7.408C40.4668 6.68267 40.4242 6.02133 40.3815 5.424C40.3388 4.82667 40.2962 4.44267 40.2535 4.272C40.1255 3.84533 39.9548 3.312 39.7415 2.672C39.5708 2.032 39.4855 1.66933 39.4855 1.584C39.4855 1.37066 39.5922 1.11466 39.8055 0.815998C40.0188 0.474664 40.2962 0.303997 40.6375 0.303997C40.8935 0.303997 41.1282 0.32533 41.3415 0.367996C41.5548 0.410665 41.7468 0.538666 41.9175 0.751999C42.0882 0.965332 42.2375 1.30666 42.3655 1.776C42.5362 2.20266 42.6855 2.82133 42.8135 3.632C42.8562 4.05866 42.9842 4.86933 43.1975 6.064C43.4108 7.25867 43.6242 8.56 43.8375 9.968C44.0508 11.376 44.2642 12.72 44.4775 14C44.6908 15.28 44.8402 16.2187 44.9255 16.816C45.1388 18.4373 45.4162 20.208 45.7575 22.128C46.1415 24.0053 46.5255 25.8187 46.9095 27.568C47.2935 29.3173 47.6775 30.8747 48.0615 32.24C48.4455 33.5627 48.7868 34.4587 49.0855 34.928C49.1708 35.0987 49.3415 35.2267 49.5975 35.312C49.8535 35.3547 50.0242 35.4827 50.1095 35.696ZM45.3735 36.976C45.3308 36.848 45.0535 36.3147 44.5415 35.376C44.0722 34.3947 43.4535 33.3493 42.6855 32.24C41.9602 31.088 41.1282 30.064 40.1895 29.168C39.2935 28.272 38.4188 27.824 37.5655 27.824C36.8402 27.824 36.2428 28.3787 35.7735 29.488C35.3468 30.5973 35.1335 31.8773 35.1335 33.328C35.1335 34.9493 35.6028 36.2507 36.5415 37.232C37.5228 38.2133 38.6108 38.704 39.8055 38.704C40.8295 38.704 41.8962 38.5333 43.0055 38.192C44.1148 37.8507 44.9042 37.4453 45.3735 36.976ZM75.54 34.16C75.7533 34.3733 75.86 34.5013 75.86 34.544C75.86 34.6293 75.732 34.8853 75.476 35.312C75.2627 35.7387 74.964 36.1867 74.58 36.656C74.196 37.1253 73.7693 37.552 73.3 37.936C72.8733 38.2773 72.4467 38.448 72.02 38.448C71.124 38.448 70.3987 38.2773 69.844 37.936C69.2893 37.552 68.82 37.0827 68.436 36.528C68.0947 35.9733 67.8173 35.376 67.604 34.736C67.4333 34.0533 67.284 33.4133 67.156 32.816C67.0707 32.5173 66.9853 32.368 66.9 32.368C66.772 32.368 66.516 32.8373 66.132 33.776C65.748 34.672 65.3213 35.6747 64.852 36.784C64.4253 37.8507 63.9987 38.8533 63.572 39.792C63.188 40.688 62.932 41.136 62.804 41.136C62.036 41.136 61.3747 40.816 60.82 40.176C60.308 39.4933 59.8813 38.7253 59.54 37.872C59.2413 36.976 59.0067 36.08 58.836 35.184C58.6653 34.2453 58.5587 33.52 58.516 33.008C58.388 31.856 58.1107 29.936 57.684 27.248C57.2573 24.56 56.8947 21.296 56.596 17.456C56.5107 16.6453 56.404 15.92 56.276 15.28C56.1907 14.5973 56.084 13.8507 55.956 13.04C55.828 12.2293 55.7213 11.312 55.636 10.288C55.5507 9.264 55.508 8.00533 55.508 6.512C55.508 6.42666 55.5293 6.14933 55.572 5.68C55.6147 5.21066 55.6787 4.69866 55.764 4.144C55.8493 3.58933 55.9773 3.09866 56.148 2.672C56.3613 2.24533 56.596 2.032 56.852 2.032C57.1507 2.032 57.428 2.224 57.684 2.608C57.94 2.94933 58.1533 3.35467 58.324 3.824C58.5373 4.29333 58.6867 4.74133 58.772 5.168C58.8573 5.59467 58.9 5.89333 58.9 6.064C58.9 6.704 58.8573 7.30133 58.772 7.856C58.6867 8.41067 58.644 8.92267 58.644 9.392C58.644 10.032 58.6867 10.8427 58.772 11.824C58.9 12.8053 59.0493 13.808 59.22 14.832C59.3907 15.856 59.54 16.8587 59.668 17.84C59.796 18.7787 59.9027 19.5467 59.988 20.144C59.988 20.1867 60.0307 20.4853 60.116 21.04C60.2013 21.5947 60.2867 22.2987 60.372 23.152C60.5 23.9627 60.6067 24.8587 60.692 25.84C60.82 26.7787 60.948 27.7173 61.076 28.656C61.204 29.552 61.3107 30.3627 61.396 31.088C61.524 31.7707 61.6093 32.2613 61.652 32.56C61.652 32.688 61.6733 32.88 61.716 33.136C61.8013 33.3493 61.8653 33.6053 61.908 33.904C61.9933 34.2027 62.0787 34.48 62.164 34.736C62.2493 34.992 62.356 35.184 62.484 35.312C62.74 34.8 63.06 34.0107 63.444 32.944C63.8707 31.8773 64.2973 30.7893 64.724 29.68C65.1933 28.5707 65.62 27.6107 66.004 26.8C66.4307 25.9467 66.7933 25.52 67.092 25.52C67.4333 25.52 67.7107 25.584 67.924 25.712C68.1373 25.84 68.4147 25.9467 68.756 26.032C69.1827 26.2027 69.396 26.4373 69.396 26.736C69.396 26.992 69.4387 27.312 69.524 27.696C69.6093 28.208 69.7373 28.8907 69.908 29.744C70.1213 30.5547 70.356 31.3653 70.612 32.176C70.868 32.944 71.1667 33.6053 71.508 34.16C71.8493 34.7147 72.1907 34.992 72.532 34.992C72.7027 34.992 72.9373 34.7787 73.236 34.352C73.5347 33.8827 73.94 33.6267 74.452 33.584C74.5373 33.584 74.6867 33.648 74.9 33.776C75.1133 33.8613 75.3267 33.9893 75.54 34.16ZM110.023 32.688C110.023 33.456 109.66 34.416 108.935 35.568C108.252 36.6773 107.313 37.7653 106.119 38.832C104.924 39.8987 103.537 40.816 101.959 41.584C100.38 42.3093 98.7372 42.672 97.0305 42.672C96.2625 42.672 95.4518 42.544 94.5985 42.288C93.7452 42.032 92.9132 41.6693 92.1025 41.2C91.2918 40.688 90.5665 40.0907 89.9265 39.408C89.2865 38.6827 88.8172 37.872 88.5185 36.976C88.2625 37.232 87.9425 37.6587 87.5585 38.256C87.2172 38.8533 86.8332 39.472 86.4065 40.112C85.9798 40.7093 85.5105 41.2427 84.9985 41.712C84.4865 42.1387 83.9532 42.352 83.3985 42.352C82.8438 42.352 82.3745 42.0747 81.9905 41.52C81.6492 40.9227 81.3718 40.2827 81.1585 39.6C80.9452 38.8747 80.7958 38.192 80.7105 37.552C80.6252 36.912 80.5825 36.5493 80.5825 36.464C80.5825 35.952 80.7318 34.992 81.0305 33.584C81.3292 32.1333 81.7772 30.64 82.3745 29.104C82.9718 27.568 83.7185 26.2027 84.6145 25.008C85.5532 23.8133 86.6412 23.216 87.8785 23.216C88.3478 23.216 88.6465 23.4293 88.7745 23.856C88.9452 24.24 89.0305 24.624 89.0305 25.008V26.928C89.2438 27.0987 89.4572 27.2267 89.6705 27.312C89.9265 27.3547 90.1398 27.44 90.3105 27.568C90.5238 27.6533 90.6732 27.8027 90.7585 28.016C90.8865 28.2293 90.9505 28.5707 90.9505 29.04C90.9505 29.3387 90.9292 29.616 90.8865 29.872C90.8438 30.0853 90.8225 30.2987 90.8225 30.512C90.8225 31.6213 90.9078 32.7093 91.0785 33.776C91.2492 34.8427 91.5905 35.8027 92.1025 36.656C92.6145 37.4667 93.3185 38.1493 94.2145 38.704C95.1105 39.216 96.3052 39.472 97.7985 39.472C99.6758 39.472 101.255 39.088 102.535 38.32C103.857 37.5093 104.945 36.6347 105.799 35.696C106.695 34.7147 107.399 33.84 107.911 33.072C108.423 32.2613 108.849 31.856 109.191 31.856C109.745 31.856 110.023 32.1333 110.023 32.688ZM87.5585 29.872C87.5585 29.7013 87.5158 29.552 87.4305 29.424C87.3452 29.2533 87.3025 29.104 87.3025 28.976C87.3025 28.8053 87.3452 28.656 87.4305 28.528C87.5158 28.4 87.5585 28.2293 87.5585 28.016C87.5585 27.888 87.5158 27.8027 87.4305 27.76C87.3452 27.6747 87.3025 27.5893 87.3025 27.504C86.9185 27.5893 86.5132 27.952 86.0865 28.592C85.7025 29.232 85.3185 29.9787 84.9345 30.832C84.5932 31.6853 84.3158 32.56 84.1025 33.456C83.8892 34.3093 83.7825 35.0133 83.7825 35.568C83.7825 35.8667 83.8678 36.3573 84.0385 37.04C84.2092 37.7227 84.4012 38.1707 84.6145 38.384C85.3398 36.8907 86.0012 35.44 86.5985 34.032C87.2385 32.624 87.5585 31.2373 87.5585 29.872ZM157.534 11.632C157.534 11.8027 157.47 11.9307 157.342 12.016C157.214 12.1013 157.086 12.1867 156.958 12.272C156.787 12.3573 156.595 12.4213 156.382 12.464C156.041 12.464 155.742 12.4427 155.486 12.4C155.23 12.3573 154.931 12.336 154.59 12.336C154.121 12.336 153.182 12.6133 151.774 13.168C150.409 13.68 148.979 14.3413 147.486 15.152C145.993 15.9627 144.649 16.816 143.454 17.712C142.302 18.608 141.705 19.3973 141.662 20.08L142.43 24.432C142.643 25.5413 142.814 26.544 142.942 27.44C143.113 28.336 143.219 28.784 143.262 28.784C143.347 28.7413 143.625 28.5707 144.094 28.272C144.606 27.9307 145.225 27.568 145.95 27.184C146.675 26.7573 147.465 26.3093 148.318 25.84C149.214 25.3707 150.067 24.944 150.878 24.56C151.689 24.176 152.435 23.856 153.118 23.6C153.801 23.344 154.334 23.216 154.718 23.216C155.017 23.216 155.273 23.28 155.486 23.408C155.742 23.536 155.87 23.7707 155.87 24.112C155.87 24.368 155.571 24.7307 154.974 25.2C154.377 25.6693 153.63 26.1813 152.734 26.736C151.838 27.2907 150.857 27.888 149.79 28.528C148.766 29.1253 147.806 29.7013 146.91 30.256C146.014 30.768 145.267 31.2587 144.67 31.728C144.073 32.1547 143.774 32.4747 143.774 32.688C143.774 32.9013 143.838 33.584 143.966 34.736C144.137 35.8453 144.35 37.0827 144.606 38.448C144.905 39.8133 145.225 41.136 145.566 42.416C145.95 43.696 146.355 44.592 146.782 45.104C146.867 45.1893 146.91 45.3173 146.91 45.488C146.91 45.744 146.739 46.0213 146.398 46.32C146.057 46.6613 145.758 46.832 145.502 46.832C145.161 46.832 144.798 46.512 144.414 45.872C144.073 45.232 143.753 44.4213 143.454 43.44C143.155 42.4587 142.857 41.4133 142.558 40.304C142.302 39.1947 142.067 38.1493 141.854 37.168C141.683 36.1867 141.534 35.376 141.406 34.736C141.278 34.096 141.193 33.776 141.15 33.776C141.022 33.776 140.723 33.8613 140.254 34.032C139.785 34.16 139.294 34.224 138.782 34.224C138.398 34.224 138.057 34.0747 137.758 33.776C137.502 33.4347 137.374 33.0933 137.374 32.752C137.374 32.4107 137.481 32.112 137.694 31.856C137.907 31.6 138.163 31.3653 138.462 31.152C138.761 30.9387 139.081 30.7467 139.422 30.576C139.763 30.4053 140.062 30.2347 140.318 30.064L138.526 17.84C138.526 17.4987 138.59 17.1573 138.718 16.816C138.846 16.432 139.123 16.24 139.55 16.24C139.635 16.24 139.763 16.3467 139.934 16.56C140.105 16.7307 140.233 16.816 140.318 16.816C140.446 16.7307 141.001 16.304 141.982 15.536C142.963 14.7253 144.158 13.872 145.566 12.976C147.017 12.0373 148.553 11.2053 150.174 10.48C151.838 9.712 153.374 9.328 154.782 9.328C155.337 9.328 155.934 9.56267 156.574 10.032C157.214 10.5013 157.534 11.0347 157.534 11.632ZM189.21 32.688C189.21 33.456 188.847 34.416 188.122 35.568C187.439 36.6773 186.501 37.7653 185.306 38.832C184.111 39.8987 182.725 40.816 181.146 41.584C179.567 42.3093 177.925 42.672 176.218 42.672C175.45 42.672 174.639 42.544 173.786 42.288C172.933 42.032 172.101 41.6693 171.29 41.2C170.479 40.688 169.754 40.0907 169.114 39.408C168.474 38.6827 168.005 37.872 167.706 36.976C167.45 37.232 167.13 37.6587 166.746 38.256C166.405 38.8533 166.021 39.472 165.594 40.112C165.167 40.7093 164.698 41.2427 164.186 41.712C163.674 42.1387 163.141 42.352 162.586 42.352C162.031 42.352 161.562 42.0747 161.178 41.52C160.837 40.9227 160.559 40.2827 160.346 39.6C160.133 38.8747 159.983 38.192 159.898 37.552C159.813 36.912 159.77 36.5493 159.77 36.464C159.77 35.952 159.919 34.992 160.218 33.584C160.517 32.1333 160.965 30.64 161.562 29.104C162.159 27.568 162.906 26.2027 163.802 25.008C164.741 23.8133 165.829 23.216 167.066 23.216C167.535 23.216 167.834 23.4293 167.962 23.856C168.133 24.24 168.218 24.624 168.218 25.008V26.928C168.431 27.0987 168.645 27.2267 168.858 27.312C169.114 27.3547 169.327 27.44 169.498 27.568C169.711 27.6533 169.861 27.8027 169.946 28.016C170.074 28.2293 170.138 28.5707 170.138 29.04C170.138 29.3387 170.117 29.616 170.074 29.872C170.031 30.0853 170.01 30.2987 170.01 30.512C170.01 31.6213 170.095 32.7093 170.266 33.776C170.437 34.8427 170.778 35.8027 171.29 36.656C171.802 37.4667 172.506 38.1493 173.402 38.704C174.298 39.216 175.493 39.472 176.986 39.472C178.863 39.472 180.442 39.088 181.722 38.32C183.045 37.5093 184.133 36.6347 184.986 35.696C185.882 34.7147 186.586 33.84 187.098 33.072C187.61 32.2613 188.037 31.856 188.378 31.856C188.933 31.856 189.21 32.1333 189.21 32.688ZM166.746 29.872C166.746 29.7013 166.703 29.552 166.618 29.424C166.533 29.2533 166.49 29.104 166.49 28.976C166.49 28.8053 166.533 28.656 166.618 28.528C166.703 28.4 166.746 28.2293 166.746 28.016C166.746 27.888 166.703 27.8027 166.618 27.76C166.533 27.6747 166.49 27.5893 166.49 27.504C166.106 27.5893 165.701 27.952 165.274 28.592C164.89 29.232 164.506 29.9787 164.122 30.832C163.781 31.6853 163.503 32.56 163.29 33.456C163.077 34.3093 162.97 35.0133 162.97 35.568C162.97 35.8667 163.055 36.3573 163.226 37.04C163.397 37.7227 163.589 38.1707 163.802 38.384C164.527 36.8907 165.189 35.44 165.786 34.032C166.426 32.624 166.746 31.2373 166.746 29.872ZM206.958 17.072C206.403 17.712 205.614 18.352 204.59 18.992C203.566 19.5893 202.542 20.144 201.518 20.656C200.494 21.168 199.598 21.616 198.83 22C198.062 22.3413 197.678 22.576 197.678 22.704C197.678 22.832 197.763 23.216 197.934 23.856C198.104 24.496 198.296 25.264 198.51 26.16C198.766 27.0133 199.022 27.9093 199.278 28.848C199.534 29.7867 199.747 30.6187 199.918 31.344C200.003 31.7707 200.11 32.3253 200.238 33.008C200.366 33.6907 200.472 34.3733 200.558 35.056C200.686 35.7387 200.792 36.3573 200.878 36.912C200.963 37.424 201.006 37.7013 201.006 37.744C201.006 38.384 200.899 39.0453 200.686 39.728C200.472 40.4107 200.131 40.752 199.662 40.752C199.406 40.752 199.171 40.6453 198.958 40.432C198.744 40.2187 198.552 39.984 198.382 39.728C198.211 39.4293 198.083 39.152 197.998 38.896C197.912 38.64 197.87 38.448 197.87 38.32C197.87 38.2347 197.87 38.1067 197.87 37.936C197.912 37.7653 197.934 37.5733 197.934 37.36C197.934 36.5493 197.806 35.376 197.55 33.84C197.464 33.3707 197.294 32.6453 197.038 31.664C196.782 30.6827 196.526 29.68 196.27 28.656C195.971 27.4613 195.63 26.16 195.246 24.752C195.075 24.1547 194.968 23.856 194.926 23.856C194.627 23.856 194.115 24.048 193.39 24.432C192.707 24.7733 191.918 25.2213 191.022 25.776C190.126 26.288 189.187 26.864 188.206 27.504C187.224 28.1013 186.307 28.6773 185.453 29.232C184.6 29.744 183.875 30.192 183.277 30.576C182.637 30.9173 182.253 31.088 182.125 31.088C181.571 31.088 181.123 30.896 180.781 30.512C180.44 30.128 180.269 29.7013 180.269 29.232C180.269 28.976 180.632 28.6133 181.357 28.144C182.04 27.632 182.915 27.0773 183.981 26.48C185.005 25.8827 186.136 25.264 187.373 24.624C188.568 23.984 189.678 23.408 190.702 22.896C191.768 22.384 192.643 21.9573 193.326 21.616C194.051 21.2747 194.414 21.104 194.414 21.104C194.03 19.1413 193.71 17.392 193.454 15.856C193.24 14.5333 193.027 13.3173 192.814 12.208C192.643 11.0987 192.558 10.5013 192.558 10.416C192.558 9.86133 192.664 9.456 192.878 9.2C193.134 8.90133 193.411 8.752 193.71 8.752C194.179 8.752 194.478 9.072 194.606 9.712C195.075 12.016 195.502 14.064 195.885 15.856C196.312 17.648 196.718 19.0987 197.102 20.208C197.486 20.1227 198.147 19.888 199.086 19.504C200.024 19.0773 201.006 18.6293 202.03 18.16C203.054 17.6907 203.971 17.2853 204.782 16.944C205.635 16.56 206.126 16.368 206.253 16.368C206.51 16.368 206.659 16.4533 206.702 16.624C206.787 16.7947 206.872 16.944 206.958 17.072ZM230.915 34.16C231.128 34.3733 231.235 34.5013 231.235 34.544C231.235 34.6293 231.107 34.8853 230.851 35.312C230.638 35.7387 230.339 36.1867 229.955 36.656C229.571 37.1253 229.144 37.552 228.675 37.936C228.248 38.2773 227.822 38.448 227.395 38.448C226.499 38.448 225.774 38.2773 225.219 37.936C224.664 37.552 224.195 37.0827 223.811 36.528C223.47 35.9733 223.192 35.376 222.979 34.736C222.808 34.0533 222.659 33.4133 222.531 32.816C222.446 32.5173 222.36 32.368 222.275 32.368C222.147 32.368 221.891 32.8373 221.507 33.776C221.123 34.672 220.696 35.6747 220.227 36.784C219.8 37.8507 219.374 38.8533 218.947 39.792C218.563 40.688 218.307 41.136 218.179 41.136C217.411 41.136 216.75 40.816 216.195 40.176C215.683 39.4933 215.256 38.7253 214.915 37.872C214.616 36.976 214.382 36.08 214.211 35.184C214.04 34.2453 213.934 33.52 213.891 33.008C213.763 31.856 213.486 29.936 213.059 27.248C212.632 24.56 212.27 21.296 211.971 17.456C211.886 16.6453 211.779 15.92 211.651 15.28C211.566 14.5973 211.459 13.8507 211.331 13.04C211.203 12.2293 211.096 11.312 211.011 10.288C210.926 9.264 210.883 8.00533 210.883 6.512C210.883 6.42666 210.904 6.14933 210.947 5.68C210.99 5.21066 211.054 4.69866 211.139 4.144C211.224 3.58933 211.352 3.09866 211.523 2.672C211.736 2.24533 211.971 2.032 212.227 2.032C212.526 2.032 212.803 2.224 213.059 2.608C213.315 2.94933 213.528 3.35467 213.699 3.824C213.912 4.29333 214.062 4.74133 214.147 5.168C214.232 5.59467 214.275 5.89333 214.275 6.064C214.275 6.704 214.232 7.30133 214.147 7.856C214.062 8.41067 214.019 8.92267 214.019 9.392C214.019 10.032 214.062 10.8427 214.147 11.824C214.275 12.8053 214.424 13.808 214.595 14.832C214.766 15.856 214.915 16.8587 215.043 17.84C215.171 18.7787 215.278 19.5467 215.363 20.144C215.363 20.1867 215.406 20.4853 215.491 21.04C215.576 21.5947 215.662 22.2987 215.747 23.152C215.875 23.9627 215.982 24.8587 216.067 25.84C216.195 26.7787 216.323 27.7173 216.451 28.656C216.579 29.552 216.686 30.3627 216.771 31.088C216.899 31.7707 216.984 32.2613 217.027 32.56C217.027 32.688 217.048 32.88 217.091 33.136C217.176 33.3493 217.24 33.6053 217.283 33.904C217.368 34.2027 217.454 34.48 217.539 34.736C217.624 34.992 217.731 35.184 217.859 35.312C218.115 34.8 218.435 34.0107 218.819 32.944C219.246 31.8773 219.672 30.7893 220.099 29.68C220.568 28.5707 220.995 27.6107 221.379 26.8C221.806 25.9467 222.168 25.52 222.467 25.52C222.808 25.52 223.086 25.584 223.299 25.712C223.512 25.84 223.79 25.9467 224.131 26.032C224.558 26.2027 224.771 26.4373 224.771 26.736C224.771 26.992 224.814 27.312 224.899 27.696C224.984 28.208 225.112 28.8907 225.283 29.744C225.496 30.5547 225.731 31.3653 225.987 32.176C226.243 32.944 226.542 33.6053 226.883 34.16C227.224 34.7147 227.566 34.992 227.907 34.992C228.078 34.992 228.312 34.7787 228.611 34.352C228.91 33.8827 229.315 33.6267 229.827 33.584C229.912 33.584 230.062 33.648 230.275 33.776C230.488 33.8613 230.702 33.9893 230.915 34.16ZM238.774 16.56C238.774 16.6453 238.624 16.816 238.326 17.072C238.027 17.328 237.664 17.6053 237.238 17.904C236.854 18.16 236.448 18.3947 236.022 18.608C235.595 18.8213 235.254 18.928 234.998 18.928C234.827 18.928 234.592 18.928 234.294 18.928C234.038 18.8853 233.76 18.8 233.462 18.672C233.206 18.544 232.971 18.3733 232.758 18.16C232.544 17.904 232.438 17.584 232.438 17.2C232.438 16.6027 232.651 16.048 233.078 15.536C233.504 14.9813 234.059 14.704 234.742 14.704C234.87 14.704 235.147 14.768 235.574 14.896C236.043 14.9813 236.512 15.1093 236.982 15.28C237.451 15.4507 237.856 15.6427 238.198 15.856C238.582 16.0693 238.774 16.304 238.774 16.56ZM240.885 40.496C240.885 40.7947 240.651 41.0507 240.182 41.264C239.755 41.4773 239.435 41.584 239.222 41.584C238.795 41.584 238.411 41.3067 238.07 40.752C237.728 40.1973 237.43 39.5573 237.174 38.832C236.918 38.1067 236.704 37.424 236.534 36.784C236.363 36.1013 236.235 35.632 236.15 35.376C236.022 34.9493 235.851 34.4373 235.638 33.84C235.424 33.2427 235.211 32.6667 234.998 32.112C234.827 31.5573 234.678 31.0667 234.549 30.64C234.422 30.2133 234.358 29.9787 234.358 29.936C234.358 29.3387 234.464 28.784 234.678 28.272C234.934 27.76 235.232 27.504 235.574 27.504C235.958 27.504 236.363 27.8027 236.79 28.4C237.216 28.9973 237.622 29.7653 238.006 30.704C238.432 31.6 238.816 32.6027 239.158 33.712C239.499 34.7787 239.798 35.8027 240.054 36.784C240.31 37.7227 240.502 38.5547 240.63 39.28C240.8 39.9627 240.885 40.368 240.885 40.496ZM273.351 39.984C273.351 40.3253 273.244 40.624 273.031 40.88C272.818 41.136 272.562 41.3493 272.263 41.52C271.964 41.648 271.644 41.7547 271.303 41.84C271.004 41.9253 270.748 41.968 270.535 41.968C269.639 41.968 268.871 41.4987 268.231 40.56C267.591 39.5787 267.058 38.512 266.631 37.36C266.204 36.1653 265.884 35.056 265.671 34.032C265.5 33.008 265.415 32.4533 265.415 32.368C265.159 32.8373 264.882 33.6267 264.583 34.736C264.327 35.8453 264.007 36.976 263.623 38.128C263.239 39.2373 262.748 40.24 262.151 41.136C261.596 41.9893 260.871 42.416 259.975 42.416C259.548 42.416 259.143 42.16 258.759 41.648C258.375 41.136 258.012 40.4747 257.671 39.664C257.33 38.8533 256.988 37.936 256.647 36.912C256.348 35.888 256.028 34.8853 255.687 33.904C255.388 32.9227 255.09 32.0053 254.791 31.152C254.492 30.256 254.194 29.552 253.895 29.04C253.639 29.68 253.404 30.5547 253.191 31.664C253.02 32.7733 252.871 33.9467 252.743 35.184C252.615 36.3787 252.508 37.5733 252.423 38.768C252.338 39.9627 252.295 41.008 252.295 41.904C252.295 42.5013 252.124 42.928 251.783 43.184C251.484 43.44 251.164 43.568 250.823 43.568C250.354 43.568 249.884 43.2693 249.415 42.672C248.946 42.032 248.476 41.2213 248.007 40.24C247.538 39.2587 247.09 38.1493 246.663 36.912C246.279 35.6747 245.916 34.4373 245.575 33.2C245.276 31.9627 245.042 30.7893 244.871 29.68C244.7 28.528 244.615 27.568 244.615 26.8C244.615 26.2453 244.636 25.7333 244.679 25.264C244.722 24.88 244.743 24.5173 244.743 24.176C244.786 23.8347 244.807 23.6427 244.807 23.6C244.807 23.472 244.764 23.3867 244.679 23.344C244.636 23.3013 244.615 23.1947 244.615 23.024C244.615 22.896 244.764 22.704 245.063 22.448C245.404 22.1493 245.746 22 246.087 22C246.684 22 247.068 22.128 247.239 22.384C247.452 22.64 247.559 22.9387 247.559 23.28C247.559 23.408 247.538 23.6 247.495 23.856C247.495 24.112 247.495 24.688 247.495 25.584C247.495 26.1813 247.602 27.0773 247.815 28.272C248.028 29.4667 248.284 30.6827 248.583 31.92C248.882 33.1573 249.18 34.3093 249.479 35.376C249.82 36.4 250.098 37.04 250.311 37.296C250.396 37.1253 250.439 36.9333 250.439 36.72C250.482 36.464 250.524 36.272 250.567 36.144L251.271 30.896C251.442 29.5733 251.783 28.1867 252.295 26.736C252.85 25.2427 253.426 24.0907 254.023 23.28C254.236 22.9387 254.471 22.768 254.727 22.768C254.983 22.768 255.218 22.96 255.431 23.344C256.156 24.5387 256.69 25.7333 257.031 26.928C257.415 28.08 257.735 29.232 257.991 30.384C258.29 31.4933 258.61 32.624 258.951 33.776C259.335 34.8853 259.911 36.016 260.679 37.168C261.02 36.6133 261.447 35.7173 261.959 34.48C262.471 33.2 262.983 31.92 263.495 30.64C264.05 29.36 264.562 28.2507 265.031 27.312C265.5 26.3307 265.863 25.84 266.119 25.84C266.247 25.84 266.46 25.8613 266.759 25.904C267.058 25.9467 267.271 25.968 267.399 25.968C267.783 25.968 268.103 26.416 268.359 27.312C268.615 28.1653 268.828 29.1893 268.999 30.384C269.212 31.536 269.404 32.7093 269.575 33.904C269.788 35.056 270.023 35.9307 270.279 36.528C270.45 36.9547 270.706 37.36 271.047 37.744C271.388 38.128 271.73 38.4907 272.071 38.832C272.498 39.216 272.924 39.6 273.351 39.984ZM308.898 32.688C308.898 33.456 308.535 34.416 307.81 35.568C307.127 36.6773 306.188 37.7653 304.994 38.832C303.799 39.8987 302.412 40.816 300.834 41.584C299.255 42.3093 297.612 42.672 295.906 42.672C295.138 42.672 294.327 42.544 293.474 42.288C292.62 42.032 291.788 41.6693 290.978 41.2C290.167 40.688 289.442 40.0907 288.802 39.408C288.162 38.6827 287.692 37.872 287.394 36.976C287.138 37.232 286.818 37.6587 286.434 38.256C286.092 38.8533 285.708 39.472 285.282 40.112C284.855 40.7093 284.386 41.2427 283.874 41.712C283.362 42.1387 282.828 42.352 282.274 42.352C281.719 42.352 281.25 42.0747 280.866 41.52C280.524 40.9227 280.247 40.2827 280.034 39.6C279.82 38.8747 279.671 38.192 279.586 37.552C279.5 36.912 279.458 36.5493 279.458 36.464C279.458 35.952 279.607 34.992 279.906 33.584C280.204 32.1333 280.652 30.64 281.25 29.104C281.847 27.568 282.594 26.2027 283.49 25.008C284.428 23.8133 285.516 23.216 286.754 23.216C287.223 23.216 287.522 23.4293 287.65 23.856C287.82 24.24 287.906 24.624 287.906 25.008V26.928C288.119 27.0987 288.332 27.2267 288.546 27.312C288.802 27.3547 289.015 27.44 289.186 27.568C289.399 27.6533 289.548 27.8027 289.634 28.016C289.762 28.2293 289.826 28.5707 289.826 29.04C289.826 29.3387 289.804 29.616 289.762 29.872C289.719 30.0853 289.698 30.2987 289.698 30.512C289.698 31.6213 289.783 32.7093 289.954 33.776C290.124 34.8427 290.466 35.8027 290.978 36.656C291.49 37.4667 292.194 38.1493 293.09 38.704C293.986 39.216 295.18 39.472 296.674 39.472C298.551 39.472 300.13 39.088 301.41 38.32C302.732 37.5093 303.82 36.6347 304.674 35.696C305.57 34.7147 306.274 33.84 306.786 33.072C307.298 32.2613 307.724 31.856 308.066 31.856C308.62 31.856 308.898 32.1333 308.898 32.688ZM286.434 29.872C286.434 29.7013 286.391 29.552 286.306 29.424C286.22 29.2533 286.178 29.104 286.178 28.976C286.178 28.8053 286.22 28.656 286.306 28.528C286.391 28.4 286.434 28.2293 286.434 28.016C286.434 27.888 286.391 27.8027 286.306 27.76C286.22 27.6747 286.178 27.5893 286.178 27.504C285.794 27.5893 285.388 27.952 284.962 28.592C284.578 29.232 284.194 29.9787 283.81 30.832C283.468 31.6853 283.191 32.56 282.978 33.456C282.764 34.3093 282.658 35.0133 282.658 35.568C282.658 35.8667 282.743 36.3573 282.914 37.04C283.084 37.7227 283.276 38.1707 283.49 38.384C284.215 36.8907 284.876 35.44 285.474 34.032C286.114 32.624 286.434 31.2373 286.434 29.872ZM366.841 49.456C366.926 49.712 367.012 49.9467 367.097 50.16C367.182 50.3733 367.246 50.608 367.289 50.864C367.374 51.12 367.417 51.3547 367.417 51.568C367.417 51.8667 367.31 52.1013 367.097 52.272C366.884 52.4853 366.628 52.656 366.329 52.784C366.073 52.912 365.817 52.9973 365.561 53.04C365.305 53.0827 365.156 53.104 365.113 53.104C364.857 53.104 364.388 52.3147 363.705 50.736C363.022 49.2 362.276 47.024 361.465 44.208C360.697 41.392 359.908 38.0427 359.097 34.16C358.286 30.2773 357.625 26.0107 357.113 21.36C357.028 22.3413 356.857 23.4933 356.601 24.816C356.388 26.096 356.046 27.312 355.577 28.464C355.108 29.616 354.489 30.5973 353.721 31.408C352.996 32.176 352.057 32.56 350.905 32.56C350.094 32.56 349.177 32.1333 348.153 31.28C347.129 30.4267 346.126 29.424 345.145 28.272C344.206 27.0773 343.332 25.8827 342.521 24.688C341.753 23.4507 341.177 22.448 340.793 21.68C340.964 23.5573 341.241 25.8187 341.625 28.464C342.052 31.1093 342.692 33.904 343.545 36.848C343.63 37.1467 343.716 37.3813 343.801 37.552C343.929 37.68 344.036 37.8293 344.121 38C344.249 38.1707 344.334 38.3627 344.377 38.576C344.462 38.7467 344.505 39.024 344.505 39.408C344.505 39.9627 344.292 40.368 343.865 40.624C343.438 40.88 343.033 41.008 342.649 41.008C342.436 41.008 342.158 40.688 341.817 40.048C341.476 39.3653 341.113 38.4907 340.729 37.424C340.345 36.3573 339.961 35.184 339.577 33.904C339.193 32.5813 338.83 31.28 338.489 30C338.19 28.72 337.934 27.5253 337.721 26.416C337.508 25.264 337.401 24.3467 337.401 23.664C337.401 22.5547 337.444 21.7867 337.529 21.36C337.657 20.9333 337.828 20.6133 338.041 20.4V16.496C338.041 15.8987 338.19 15.4507 338.489 15.152C338.83 14.8107 339.257 14.64 339.769 14.64C340.196 14.64 340.686 15.0027 341.241 15.728C341.796 16.4533 342.393 17.3707 343.033 18.48C343.716 19.5893 344.42 20.784 345.145 22.064C345.87 23.344 346.574 24.5387 347.257 25.648C347.982 26.7573 348.665 27.6747 349.305 28.4C349.988 29.1253 350.628 29.488 351.225 29.488C351.78 29.488 352.313 28.976 352.825 27.952C353.337 26.8853 353.806 25.4987 354.233 23.792C354.702 22.0853 355.108 20.144 355.449 17.968C355.79 15.792 356.068 13.5733 356.281 11.312C356.281 11.056 356.26 10.7787 356.217 10.48C356.174 10.1387 356.153 9.776 356.153 9.392C356.153 8.88 356.26 8.32533 356.473 7.728C356.729 7.13066 357.198 6.832 357.881 6.832C358.265 6.832 358.564 6.93866 358.777 7.152C359.033 7.36533 359.204 7.64266 359.289 7.984C359.374 8.28267 359.417 8.60266 359.417 8.944C359.46 9.24266 359.481 9.49866 359.481 9.712C359.481 10.0533 359.438 10.6293 359.353 11.44C359.31 12.208 359.289 13.4027 359.289 15.024C359.289 16.432 359.396 18.0747 359.609 19.952C359.822 21.7867 360.1 23.7493 360.441 25.84C360.825 27.888 361.252 30.0213 361.721 32.24C362.233 34.416 362.766 36.5493 363.321 38.64C363.918 40.7307 364.494 42.7147 365.049 44.592C365.646 46.4267 366.244 48.048 366.841 49.456Z" fill="black"/>
</svg>
